<svg xmlns="http://www.w3.org/2000/svg" viewBox="0 0 1600 900"><rect width="1600" height="900" fill="#f4f1e9"/><path d="M0 210C220 120 320 310 520 230S870 70 1050 200s340 80 550-20v390c-240 40-380-70-550 20S720 760 520 630 200 710 0 610Z" fill="#111"/><g fill="none" stroke="#777" stroke-width="2" opacity=".65"><path d="M80 80h1440M80 160h1440M80 240h1440M80 320h1440M80 400h1440M80 480h1440M80 560h1440M80 640h1440M80 720h1440M80 800h1440"/><path d="M120 50v800M240 50v800M360 50v800M480 50v800M600 50v800M720 50v800M840 50v800M960 50v800M1080 50v800M1200 50v800M1320 50v800M1440 50v800"/></g><g stroke="#a5422f" stroke-width="8" fill="none"><path d="M120 500C300 430 430 570 610 480s390-90 540 10 250 10 340-40"/><path stroke-dasharray="16 18" d="M120 560C300 490 430 630 610 540s390-90 540 10 250 10 340-40"/></g><g fill="#f4f1e9" stroke="#111" stroke-width="8"><path d="M410 280l150-80 110 80-20 180-170 25-100-95Z"/><path d="M920 260l150-70 120 90-20 170-170 40-110-100Z"/></g><g font-family="monospace" fill="#a5422f" font-size="26"><text x="95" y="70">01</text><text x="220" y="70">02</text><text x="345" y="70">03</text><text x="470" y="70">04</text><text x="595" y="70">05</text><text x="720" y="70">06</text><text x="845" y="70">07</text><text x="970" y="70">08</text><text x="1095" y="70">09</text><text x="1220" y="70">10</text><text x="1345" y="70">11</text><text x="1470" y="70">12</text></g><text x="80" y="860" font-family="monospace" font-size="30">TWELVE OPENINGS / TWO SIDES / ONE CHANGING GROUND</text></svg>